HIERARCHY
ROOT RootJoint
{
    OFFSET   0.000000   0.000000   0.000000
    CHANNELS 6 Xposition Yposition Zposition Xrotation Yrotation Zrotation
    JOINT pelvis_lowerback
    {
        OFFSET   0.000000   0.093605   0.000000
        CHANNELS 3 Xrotation Yrotation Zrotation
        JOINT lowerback_torso
        {
            OFFSET   0.000000   0.100000   0.000000
            CHANNELS 3 Xrotation Yrotation Zrotation
            JOINT torso_head
            {
                OFFSET   0.000000   0.282350   0.000000
                CHANNELS 3 Xrotation Yrotation Zrotation
                End Site
                {
                    OFFSET   0.000000   0.192650   0.000000
                }
            }
            JOINT rTorso_Clavicle
            {
                OFFSET  -0.001000   0.157500   0.000000
                CHANNELS 3 Xrotation Yrotation Zrotation
                JOINT rShoulder
                {
                    OFFSET  -0.117647   0.000000   0.000000
                    CHANNELS 3 Xrotation Yrotation Zrotation
                    JOINT rElbow
                    {
                        OFFSET  -0.245000   0.000000   0.000000
                        CHANNELS 3 Xrotation Yrotation Zrotation
                        JOINT rWrist
                        {
                            OFFSET  -0.240000   0.000000   0.000000
                            CHANNELS 3 Xrotation Yrotation Zrotation
                            End Site
                            {
                                OFFSET  -0.116353  -0.002500   0.000000
                            }
                        }
                    }
                }
            }
            JOINT lTorso_Clavicle
            {
                OFFSET   0.001000   0.157500   0.000000
                CHANNELS 3 Xrotation Yrotation Zrotation
                JOINT lShoulder
                {
                    OFFSET   0.117647   0.000000   0.000000
                    CHANNELS 3 Xrotation Yrotation Zrotation
                    JOINT lElbow
                    {
                        OFFSET   0.245000   0.000000   0.000000
                        CHANNELS 3 Xrotation Yrotation Zrotation
                        JOINT lWrist
                        {
                            OFFSET   0.240000   0.000000   0.000000
                            CHANNELS 3 Xrotation Yrotation Zrotation
                            End Site
                            {
                                OFFSET   0.116353  -0.002500   0.000000
                            }
                        }
                    }
                }
            }
        }
    }
    JOINT rHip
    {
        OFFSET  -0.100000  -0.051395   0.000000
        CHANNELS 3 Xrotation Yrotation Zrotation
        JOINT rKnee
        {
            OFFSET   0.000000  -0.410000   0.000000
            CHANNELS 3 Xrotation Yrotation Zrotation
            JOINT rAnkle
            {
                OFFSET   0.000000  -0.390000   0.000000
                CHANNELS 3 Xrotation Yrotation Zrotation
                JOINT rToeJoint
                {
                    OFFSET   0.000000  -0.050000   0.130000
                    CHANNELS 3 Xrotation Yrotation Zrotation
                    End Site
                    {
                        OFFSET  -0.010000   0.002000   0.060000
                    }
                }
            }
        }
    }
    JOINT lHip
    {
        OFFSET   0.100000  -0.051395   0.000000
        CHANNELS 3 Xrotation Yrotation Zrotation
        JOINT lKnee
        {
            OFFSET   0.000000  -0.410000   0.000000
            CHANNELS 3 Xrotation Yrotation Zrotation
            JOINT lAnkle
            {
                OFFSET   0.000000  -0.390000   0.000000
                CHANNELS 3 Xrotation Yrotation Zrotation
                JOINT lToeJoint
                {
                    OFFSET   0.000000  -0.050000   0.130000
                    CHANNELS 3 Xrotation Yrotation Zrotation
                    End Site
                    {
                        OFFSET   0.010000   0.002000   0.060000
                    }
                }
            }
        }
    }
}
MOTION
Frames: 11
Frame Time:   0.008333
 -2.404908   0.896346   4.610535  -1.148023  -9.904078   2.866862   8.841816   2.691187  -5.409306   5.966799   0.028337  -1.758806  -1.308153  -0.861708   0.599989   1.773756   6.300371  11.910356   6.830186  17.138193  49.572857  -0.000994  16.135230  -0.003165   9.285402   2.754456   1.601113   2.042969  -2.414426 -10.702248  13.947911 -13.173673 -47.500172  -0.002194 -14.966527   0.000667   8.684469  -4.456779  -1.412685  -1.652437  -0.781512  -9.532473  61.763247  -0.013909  -0.003243   6.178954  -0.238046   3.874441 -10.558788  -0.007770  -0.023786 -13.344669  -0.908987  -3.128375  26.465390  -0.005605  -0.003205 -12.580440   4.657057   5.704071   0.570069  -0.000133  -0.000281
 -2.405091   0.898439   4.620211  -1.258722  -9.728160   2.680183   8.800660   2.455424  -5.215093   5.960436  -0.095587  -1.633806  -1.200037  -0.828151   0.586463   1.854321   6.102407  11.902209   7.060594  16.990965  49.585253  -0.000982  15.913384  -0.003290   9.261921   2.761572   1.676092   2.016468  -2.409743 -10.575799  13.575545 -13.248804 -47.350096  -0.002936 -15.195227   0.000351   8.706450  -4.442722  -1.334791  -2.749213  -0.818529  -9.174506  62.323613  -0.011856  -0.001626   5.012254  -0.526414   3.891947  -9.766183  -0.007669  -0.018985 -12.053682  -0.958256  -3.039724  25.453740  -0.005741  -0.004263 -12.732129   4.449113   5.654288   0.529702  -0.000161  -0.000224
 -2.405362   0.900460   4.629840  -1.353731  -9.547957   2.483322   8.758156   2.227001  -5.010650   5.948072  -0.222666  -1.503153  -1.092123  -0.792998   0.573040   1.942219   5.904167  11.875379   7.286640  16.843789  49.594100  -0.000948  15.702197  -0.003331   9.236591   2.758402   1.757074   1.966750  -2.416100 -10.436100  13.207631 -13.333583 -47.200466  -0.003567 -15.423853   0.000105   8.720067  -4.498584  -1.215333  -3.887777  -0.859363  -8.780542  62.709459  -0.009993  -0.000542   3.908246  -0.795241   3.903087  -9.094567  -0.007431  -0.014821 -10.758569  -1.016703  -2.926521  24.391437  -0.005783  -0.005182 -12.859256   4.244727   5.609908   0.528447  -0.000130  -0.000179
 -2.405689   0.902270   4.639464  -1.450333  -9.357490   2.289526   8.720094   1.995806  -4.807613   5.934602  -0.358488  -1.370977  -0.989432  -0.759760   0.561316   2.032179   5.710375  11.834282   7.505549  16.699467  49.596480  -0.000884  15.502062  -0.003320   9.212805   2.740308   1.837684   1.907022  -2.432143 -10.287757  12.855490 -13.419934 -47.050675  -0.004035 -15.642917  -0.000056   8.732049  -4.587780  -1.071126  -5.042852  -0.903563  -8.383899  63.016093  -0.008366   0.000210   2.874588  -1.045917   3.909158  -8.487026  -0.007080  -0.011327  -9.473362  -1.085590  -2.809606  23.346021  -0.005702  -0.005862 -12.993729   4.044654   5.569727   0.538052  -0.000094  -0.000144
 -2.406061   0.903814   4.649109  -1.553634  -9.152718   2.106355   8.684972   1.762144  -4.611380   5.921925  -0.501883  -1.240720  -0.892468  -0.728968   0.551107   2.123023   5.521488  11.784850   7.716801  16.558367  49.593321  -0.000804  15.312302  -0.003264   9.190415   2.707426   1.912614   1.842501  -2.454623 -10.136054  12.521702 -13.504936 -46.901881  -0.004344 -15.850205  -0.000168   8.743794  -4.689025  -0.911255  -6.192635  -0.948424  -8.000318  63.273212  -0.006955   0.000737   1.908194  -1.279879   3.911048  -7.934568  -0.006611  -0.008429  -8.206356  -1.163691  -2.698287  22.348014  -0.005522  -0.006323 -13.148547   3.846324   5.530740   0.536029  -0.000077  -0.000115
 -2.406471   0.905078   4.658788  -1.662808  -8.931687   1.938642   8.650432   1.528903  -4.424951   5.909419  -0.650045  -1.114852  -0.801541  -0.700556   0.542061   2.214084   5.338100  11.731890   7.920008  16.421084  49.586684  -0.000720  15.132443  -0.003165   9.169287   2.661380   1.981399   1.775823  -2.481401  -9.985497  12.206496 -13.587610 -46.756136  -0.004513 -16.045410  -0.000256   8.755602  -4.793862  -0.741534  -7.323750  -0.991773  -7.637908  63.492796  -0.005735   0.001099   1.005130  -1.498358   3.909479  -7.431303  -0.006050  -0.006044  -6.963201  -1.250529  -2.597070  21.409217  -0.005270  -0.006605 -13.331080   3.647695   5.490879   0.525583  -0.000072  -0.000092
 -2.406922   0.906054   4.668509  -1.776292  -8.694284   1.786489   8.614308   1.299446  -4.247979   5.896119  -0.799779  -0.994135  -0.716656  -0.674305   0.533955   2.304706   5.160792  11.678126   8.114807  16.288284  49.578377  -0.000639  14.962229  -0.003028   9.149346   2.604969   2.045882   1.709003  -2.510620  -9.839216  11.909593 -13.667490 -46.615731  -0.004564 -16.228871  -0.000339   8.767473  -4.899520  -0.567366  -8.426155  -1.033033  -7.298331  63.682064  -0.004690   0.001335   0.161413  -1.702405   3.905100  -6.972528  -0.005436  -0.004096  -5.748952  -1.344046  -2.504701  20.534913  -0.004971  -0.006753 -13.520082   3.449772   5.451364   0.374979  -0.000195  -0.000075
 -2.407480   0.907097   4.678317  -1.914137  -8.500245   1.560061   8.646254   1.119482  -4.002177   5.846815  -0.895542  -0.876153  -0.655631  -0.617335   0.533790   2.369447   4.919831  11.661128   8.312030  16.046829  49.548818  -0.000548  14.803992  -0.003025   9.090442   2.644533   2.074181   1.689556  -2.481062  -9.694929  11.408304 -13.709695 -46.491358  -0.006178 -16.665585  -0.001514   8.733111  -4.815450  -0.470339  -9.343090  -1.059642  -6.871856  63.044685  -0.003428  -0.000500  -0.854531  -1.941656   3.991928  -6.573033  -0.005295  -0.002539  -4.452111  -1.376784  -2.310655  19.581777  -0.004687  -0.007235 -13.697583   3.222973   5.355524   0.341171  -0.000197  -0.000059
 -2.408062   0.907941   4.688058  -2.027395  -8.333420   1.343208   8.675101   0.948022  -3.768819   5.784649  -0.990531  -0.759439  -0.598513  -0.560171   0.534655   2.439723   4.684722  11.628666   8.505103  15.812339  49.517860  -0.000461  14.652707  -0.002994   9.030211   2.678807   2.094975   1.645000  -2.464135  -9.540356  10.917674 -13.766227 -46.368686  -0.007448 -17.093021  -0.002304   8.690450  -4.838186  -0.330172 -10.294225  -1.077967  -6.470530  62.223793  -0.002276  -0.002238  -1.815159  -2.166469   4.069235  -6.225530  -0.005088  -0.001378  -3.191117  -1.396474  -2.116857  18.646068  -0.004357  -0.007404 -13.881862   3.019474   5.264049   0.309696  -0.000194  -0.000047
 -2.408675   0.908534   4.697762  -2.139851  -8.170530   1.142514   8.709468   0.768804  -3.552479   5.724374  -1.097040  -0.647638  -0.544303  -0.506490   0.535735   2.509629   4.460561  11.588412   8.689967  15.588800  49.484704  -0.000379  14.509226  -0.002940   8.972838   2.699427   2.111832   1.585954  -2.462501  -9.381841  10.447701 -13.829128 -46.243387  -0.008317 -17.498714  -0.002717   8.648747  -4.904785  -0.162243 -11.263692  -1.092121  -6.103541  61.376208  -0.001379  -0.003582  -2.715203  -2.377480   4.138416  -5.910576  -0.004825  -0.000497  -1.958087  -1.415660  -1.935014  17.760621  -0.004002  -0.007360 -14.090134   2.828522   5.173636   0.279681  -0.000188  -0.000037
 -2.409325   0.908876   4.707462  -2.257029  -8.001283   0.958401   8.746232   0.581669  -3.351843   5.669656  -1.215032  -0.541496  -0.492375  -0.456733   0.536713   2.579838   4.245857  11.545687   8.867222  15.375496  49.450978  -0.000307  14.372943  -0.002863   8.918199   2.706464   2.124784   1.518419  -2.472240  -9.224977  10.000716 -13.895235 -46.118187  -0.008825 -17.881205  -0.002885   8.609336  -4.989488   0.022273 -12.234020  -1.102696  -5.768869  60.547491  -0.000763  -0.004585  -3.556782  -2.575475   4.200391  -5.624690  -0.004508   0.000175  -0.749396  -1.439353  -1.765623  16.932808  -0.003642  -0.007189 -14.327666   2.643784   5.082104   0.250680  -0.000181  -0.000029
